{
  "accessors": [
    {
      "bufferView": 2,
      "componentType": 5126,
      "count": 16,
      "max": [
        0.002318799030035734,
        0.05321437120437622,
        -9.785169822862372e-06
      ],
      "min": [
        -0.0025388000067323446,
        0.05303334817290306,
        -0.0008118490222841501
      ],
      "type": "VEC3"
    },
    {
      "bufferView": 0,
      "componentType": 5125,
      "count": 32,
      "type": "SCALAR"
    },
    {
      "bufferView": 2,
      "byteOffset": 192,
      "componentType": 5126,
      "count": 2974,
      "max": [
        0.029329949989914894,
        0.05512398108839989,
        0.014308810234069824
      ],
      "min": [
        -0.029329949989914894,
        -0.00011316600284771994,
        -0.011492069810628891
      ],
      "type": "VEC3"
    },
    {
      "bufferView": 2,
      "byteOffset": 35880,
      "componentType": 5126,
      "count": 2974,
      "max": [
        0.9999372959136963,
        1.0,
        0.9999668002128601
      ],
      "min": [
        -0.9999372959136963,
        -1.0,
        -0.9999544620513916
      ],
      "type": "VEC3"
    },
    {
      "bufferView": 1,
      "componentType": 5126,
      "count": 2974,
      "max": [
        0.9948740005493164,
        0.9917539954185486
      ],
      "min": [
        0.01199996005743742,
        0.00958698894828558
      ],
      "type": "VEC2"
    },
    {
      "bufferView": 0,
      "byteOffset": 128,
      "componentType": 5125,
      "count": 15297,
      "type": "SCALAR"
    },
    {
      "bufferView": 2,
      "byteOffset": 71568,
      "componentType": 5126,
      "count": 87,
      "max": [
        0.009428857825696468,
        0.028584180399775505,
        0.01095598004758358
      ],
      "min": [
        -0.009428857825696468,
        0.01106529962271452,
        0.005617380142211914
      ],
      "type": "VEC3"
    },
    {
      "bufferView": 2,
      "byteOffset": 72612,
      "componentType": 5126,
      "count": 87,
      "max": [
        0.872582197189331,
        0.6143273115158081,
        0.9945827722549438
      ],
      "min": [
        -0.872582197189331,
        -0.8116940855979919,
        0.4618206322193146
      ],
      "type": "VEC3"
    },
    {
      "bufferView": 1,
      "byteOffset": 23792,
      "componentType": 5126,
      "count": 87,
      "max": [
        0.9666470289230347,
        0.9026229977607727
      ],
      "min": [
        0.03304398059844971,
        0.0753139778971672
      ],
      "type": "VEC2"
    },
    {
      "bufferView": 0,
      "byteOffset": 61316,
      "componentType": 5125,
      "count": 414,
      "type": "SCALAR"
    },
    {
      "bufferView": 2,
      "byteOffset": 73656,
      "componentType": 5126,
      "count": 200,
      "max": [
        0.006794095039367676,
        0.04480993002653122,
        0.008672893047332764
      ],
      "min": [
        -0.006794095039367676,
        0.03627169132232666,
        -0.00024329900043085217
      ],
      "type": "VEC3"
    },
    {
      "bufferView": 2,
      "byteOffset": 76056,
      "componentType": 5126,
      "count": 200,
      "max": [
        0.994063675403595,
        0.9519214034080505,
        0.9887596964836121
      ],
      "min": [
        -0.994063675403595,
        -0.9519214034080505,
        -0.9887596964836121
      ],
      "type": "VEC3"
    },
    {
      "bufferView": 1,
      "byteOffset": 24488,
      "componentType": 5126,
      "count": 200,
      "max": [
        0.9690459966659546,
        0.9688460230827332
      ],
      "min": [
        -0.06072496995329857,
        -1.1306899785995483
      ],
      "type": "VEC2"
    },
    {
      "bufferView": 0,
      "byteOffset": 62972,
      "componentType": 5125,
      "count": 1008,
      "type": "SCALAR"
    },
    {
      "bufferView": 2,
      "byteOffset": 78456,
      "componentType": 5126,
      "count": 167,
      "max": [
        0.003581285011023283,
        0.04101938009262085,
        0.01418112963438034
      ],
      "min": [
        -0.003581285011023283,
        0.03406577929854393,
        0.00882041361182928
      ],
      "type": "VEC3"
    },
    {
      "bufferView": 2,
      "byteOffset": 80460,
      "componentType": 5126,
      "count": 167,
      "max": [
        0.9960737228393555,
        0.9181106090545654,
        0.9617815017700195
      ],
      "min": [
        -0.9960737228393555,
        -0.9984799027442932,
        -0.4957895576953888
      ],
      "type": "VEC3"
    },
    {
      "bufferView": 1,
      "byteOffset": 26088,
      "componentType": 5126,
      "count": 167,
      "max": [
        0.7773439884185791,
        0.5925300121307373
      ],
      "min": [
        0.3964270055294037,
        0.013219949789345264
      ],
      "type": "VEC2"
    },
    {
      "bufferView": 0,
      "byteOffset": 67004,
      "componentType": 5125,
      "count": 741,
      "type": "SCALAR"
    }
  ],
  "asset": {
    "extras": {
      "author": "Modelguy99 (https://sketchfab.com/Modelguy99)",
      "license": "CC-BY-4.0 (http://creativecommons.org/licenses/by/4.0/)",
      "source": "https://sketchfab.com/3d-models/template-bear-for-custom-models-a3cb2591d0af49d8aea137097bbc46ae",
      "title": "Template Bear For Custom Models"
    },
    "generator": "Sketchfab-13.24.0",
    "version": "2.0"
  },
  "bufferViews": [
    {
      "buffer": 0,
      "byteLength": 69968,
      "name": "floatBufferViews",
      "target": 34963
    },
    {
      "buffer": 0,
      "byteLength": 27424,
      "byteOffset": 69968,
      "byteStride": 8,
      "name": "floatBufferViews",
      "target": 34962
    },
    {
      "buffer": 0,
      "byteLength": 82464,
      "byteOffset": 97392,
      "byteStride": 12,
      "name": "floatBufferViews",
      "target": 34962
    }
  ],
  "buffers": [
    {
      "byteLength": 179856,
      "uri": "scene.bin"
    }
  ],
  "materials": [
    {
      "doubleSided": true,
      "name": "material_0",
      "pbrMetallicRoughness": {
        "metallicFactor": 0.0,
        "roughnessFactor": 0.6
      }
    },
    {
      "doubleSided": true,
      "name": "body",
      "pbrMetallicRoughness": {
        "baseColorFactor": [
          0.8,
          0.8,
          0.8,
          1.0
        ],
        "metallicFactor": 0.0,
        "roughnessFactor": 0.6
      }
    },
    {
      "doubleSided": true,
      "name": "stomach",
      "pbrMetallicRoughness": {
        "baseColorFactor": [
          0.8,
          0.8,
          0.8,
          1.0
        ],
        "metallicFactor": 0.0,
        "roughnessFactor": 0.6
      }
    },
    {
      "doubleSided": true,
      "name": "material",
      "pbrMetallicRoughness": {
        "metallicFactor": 0.0,
        "roughnessFactor": 0.6
      }
    },
    {
      "doubleSided": true,
      "name": "nose",
      "pbrMetallicRoughness": {
        "baseColorFactor": [
          0.8,
          0.8,
          0.8,
          1.0
        ],
        "metallicFactor": 0.0,
        "roughnessFactor": 0.6
      }
    }
  ],
  "meshes": [
    {
      "name": "Object_0",
      "primitives": [
        {
          "attributes": {
            "POSITION": 0
          },
          "indices": 1,
          "material": 0,
          "mode": 1
        }
      ]
    },
    {
      "name": "body_color-material",
      "primitives": [
        {
          "attributes": {
            "NORMAL": 3,
            "POSITION": 2,
            "TEXCOORD_0": 4
          },
          "indices": 5,
          "material": 1,
          "mode": 4
        }
      ]
    },
    {
      "name": "stomach_symbol-material",
      "primitives": [
        {
          "attributes": {
            "NORMAL": 7,
            "POSITION": 6,
            "TEXCOORD_0": 8
          },
          "indices": 9,
          "material": 2,
          "mode": 4
        }
      ]
    },
    {
      "name": "eye-material",
      "primitives": [
        {
          "attributes": {
            "NORMAL": 11,
            "POSITION": 10,
            "TEXCOORD_0": 12
          },
          "indices": 13,
          "material": 3,
          "mode": 4
        }
      ]
    },
    {
      "name": "nose-material",
      "primitives": [
        {
          "attributes": {
            "NORMAL": 15,
            "POSITION": 14,
            "TEXCOORD_0": 16
          },
          "indices": 17,
          "material": 4,
          "mode": 4
        }
      ]
    }
  ],
  "nodes": [
    {
      "children": [
        1
      ],
      "matrix": [
        1.0,
        0.0,
        0.0,
        0.0,
        0.0,
        2.220446049250313e-16,
        -1.0,
        0.0,
        0.0,
        1.0,
        2.220446049250313e-16,
        0.0,
        0.0,
        0.0,
        0.0,
        1.0
      ],
      "name": "Sketchfab_model"
    },
    {
      "children": [
        2
      ],
      "name": "Collada visual scene group"
    },
    {
      "children": [
        3,
        4,
        5,
        6,
        7
      ],
      "matrix": [
        98.59118,
        0.0,
        0.0,
        0.0,
        0.0,
        -1.60625e-05,
        98.59118,
        0.0,
        0.0,
        -98.59118,
        -1.60625e-05,
        0.0,
        0.002276182,
        0.0,
        0.0,
        1.0
      ],
      "name": "CheerBear"
    },
    {
      "mesh": 0,
      "name": "Object_3"
    },
    {
      "mesh": 1,
      "name": "body_color-material"
    },
    {
      "mesh": 2,
      "name": "stomach_symbol-material"
    },
    {
      "mesh": 3,
      "name": "eye-material"
    },
    {
      "mesh": 4,
      "name": "nose-material"
    }
  ],
  "scene": 0,
  "scenes": [
    {
      "name": "Sketchfab_Scene",
      "nodes": [
        0
      ]
    }
  ]
}
