{
  "accessors": [
    {
      "bufferView": 2,
      "componentType": 5126,
      "count": 65532,
      "max": [
        3.998090982437134,
        3.1224629878997803,
        6.6163787841796875
      ],
      "min": [
        -4.0941009521484375,
        -4.27287483215332,
        -4.109389781951904
      ],
      "type": "VEC3"
    },
    {
      "bufferView": 2,
      "byteOffset": 786384,
      "componentType": 5126,
      "count": 65532,
      "max": [
        0.9999970197677612,
        0.9999788999557495,
        0.9999991655349731
      ],
      "min": [
        -0.9998100399971008,
        -0.999998927116394,
        -0.999822199344635
      ],
      "type": "VEC3"
    },
    {
      "bufferView": 1,
      "componentType": 5126,
      "count": 65532,
      "max": [
        0.997497022151947,
        0.9989510178565979
      ],
      "min": [
        0.0010580000234767795,
        0.011706000193953514
      ],
      "type": "VEC2"
    },
    {
      "bufferView": 0,
      "componentType": 5125,
      "count": 66408,
      "type": "SCALAR"
    },
    {
      "bufferView": 2,
      "byteOffset": 1572768,
      "componentType": 5126,
      "count": 65533,
      "max": [
        3.871527910232544,
        3.1076760292053223,
        11.291382789611816
      ],
      "min": [
        -3.068150043487549,
        -4.250671863555908,
        -4.108842849731445
      ],
      "type": "VEC3"
    },
    {
      "bufferView": 2,
      "byteOffset": 2359164,
      "componentType": 5126,
      "count": 65533,
      "max": [
        0.9999159574508667,
        0.9999960660934448,
        0.9999990463256836
      ],
      "min": [
        -0.9999397993087769,
        -0.9999923706054688,
        -0.9998188614845276
      ],
      "type": "VEC3"
    },
    {
      "bufferView": 1,
      "byteOffset": 524256,
      "componentType": 5126,
      "count": 65533,
      "max": [
        0.9936079978942871,
        0.9989359974861145
      ],
      "min": [
        0.0010550000006332994,
        0.002750999992713332
      ],
      "type": "VEC2"
    },
    {
      "bufferView": 0,
      "byteOffset": 265632,
      "componentType": 5125,
      "count": 65535,
      "type": "SCALAR"
    },
    {
      "bufferView": 2,
      "byteOffset": 3145560,
      "componentType": 5126,
      "count": 65533,
      "max": [
        -0.3952440023422241,
        3.0158870220184326,
        10.865518569946289
      ],
      "min": [
        -4.167719841003418,
        -4.271137237548828,
        -4.107048034667969
      ],
      "type": "VEC3"
    },
    {
      "bufferView": 2,
      "byteOffset": 3931956,
      "componentType": 5126,
      "count": 65533,
      "max": [
        0.9998506307601929,
        0.9999983310699463,
        0.9999901056289673
      ],
      "min": [
        -0.9999988079071045,
        -0.9999828338623047,
        -0.9998644590377808
      ],
      "type": "VEC3"
    },
    {
      "bufferView": 1,
      "byteOffset": 1048520,
      "componentType": 5126,
      "count": 65533,
      "max": [
        0.9936540126800537,
        0.9989550113677979
      ],
      "min": [
        0.0010529999854043126,
        0.0021329999435693026
      ],
      "type": "VEC2"
    },
    {
      "bufferView": 0,
      "byteOffset": 527772,
      "componentType": 5125,
      "count": 65541,
      "type": "SCALAR"
    },
    {
      "bufferView": 2,
      "byteOffset": 4718352,
      "componentType": 5126,
      "count": 65533,
      "max": [
        -0.32235801219940186,
        3.077862024307251,
        10.870712280273438
      ],
      "min": [
        -4.167719841003418,
        -4.275091171264648,
        -4.107048034667969
      ],
      "type": "VEC3"
    },
    {
      "bufferView": 2,
      "byteOffset": 5504748,
      "componentType": 5126,
      "count": 65533,
      "max": [
        0.9997836947441101,
        0.9999949932098389,
        0.999991774559021
      ],
      "min": [
        -0.9999971389770508,
        -0.9999939203262329,
        -0.9987009763717651
      ],
      "type": "VEC3"
    },
    {
      "bufferView": 1,
      "byteOffset": 1572784,
      "componentType": 5126,
      "count": 65533,
      "max": [
        0.995140016078949,
        0.9989240169525146
      ],
      "min": [
        0.0010550000006332994,
        0.0017290000105276704
      ],
      "type": "VEC2"
    },
    {
      "bufferView": 0,
      "byteOffset": 789936,
      "componentType": 5125,
      "count": 65535,
      "type": "SCALAR"
    },
    {
      "bufferView": 2,
      "byteOffset": 6291144,
      "componentType": 5126,
      "count": 65533,
      "max": [
        2.2911229133605957,
        3.129340887069702,
        11.278011322021484
      ],
      "min": [
        -2.9929850101470947,
        -4.250671863555908,
        -4.107449054718018
      ],
      "type": "VEC3"
    },
    {
      "bufferView": 2,
      "byteOffset": 7077540,
      "componentType": 5126,
      "count": 65533,
      "max": [
        0.9999880790710449,
        0.9999995231628418,
        0.9999943971633911
      ],
      "min": [
        -0.9999841451644897,
        -0.9999924898147583,
        -0.9998207688331604
      ],
      "type": "VEC3"
    },
    {
      "bufferView": 1,
      "byteOffset": 2097048,
      "componentType": 5126,
      "count": 65533,
      "max": [
        0.996288001537323,
        0.998956024646759
      ],
      "min": [
        0.00113800005055964,
        0.0018970000091940165
      ],
      "type": "VEC2"
    },
    {
      "bufferView": 0,
      "byteOffset": 1052076,
      "componentType": 5125,
      "count": 65547,
      "type": "SCALAR"
    },
    {
      "bufferView": 2,
      "byteOffset": 7863936,
      "componentType": 5126,
      "count": 65532,
      "max": [
        2.1685171127319336,
        -0.2184150069952011,
        10.863723754882813
      ],
      "min": [
        -0.5083230137825012,
        -4.214787006378174,
        -3.081768035888672
      ],
      "type": "VEC3"
    },
    {
      "bufferView": 2,
      "byteOffset": 8650320,
      "componentType": 5126,
      "count": 65532,
      "max": [
        0.9998424649238586,
        0.9940605163574219,
        1.0
      ],
      "min": [
        -0.9998502731323242,
        -0.9999970197677612,
        -0.9972161650657654
      ],
      "type": "VEC3"
    },
    {
      "bufferView": 1,
      "byteOffset": 2621312,
      "componentType": 5126,
      "count": 65532,
      "max": [
        0.9965749979019165,
        0.9989579916000366
      ],
      "min": [
        0.014605999924242496,
        0.0018970000091940165
      ],
      "type": "VEC2"
    },
    {
      "bufferView": 0,
      "byteOffset": 1314264,
      "componentType": 5125,
      "count": 65538,
      "type": "SCALAR"
    },
    {
      "bufferView": 2,
      "byteOffset": 9436704,
      "componentType": 5126,
      "count": 53412,
      "max": [
        3.960608959197998,
        3.129340887069702,
        11.26486873626709
      ],
      "min": [
        -0.5654000043869019,
        -4.214787006378174,
        -4.087818145751953
      ],
      "type": "VEC3"
    },
    {
      "bufferView": 2,
      "byteOffset": 10077648,
      "componentType": 5126,
      "count": 53412,
      "max": [
        0.9999992847442627,
        0.9999990463256836,
        0.9999955892562866
      ],
      "min": [
        -0.9998473525047302,
        -0.9999760389328003,
        -0.9995360970497131
      ],
      "type": "VEC3"
    },
    {
      "bufferView": 1,
      "byteOffset": 3145568,
      "componentType": 5126,
      "count": 53412,
      "max": [
        0.9965749979019165,
        0.9989539980888367
      ],
      "min": [
        0.00113800005055964,
        0.0018970000091940165
      ],
      "type": "VEC2"
    },
    {
      "bufferView": 0,
      "byteOffset": 1576416,
      "componentType": 5125,
      "count": 53418,
      "type": "SCALAR"
    },
    {
      "bufferView": 2,
      "byteOffset": 10718592,
      "componentType": 5126,
      "count": 65532,
      "max": [
        4.016345024108887,
        3.105246067047119,
        11.291382789611816
      ],
      "min": [
        -4.166615962982178,
        -4.204823017120361,
        -4.109389781951904
      ],
      "type": "VEC3"
    },
    {
      "bufferView": 2,
      "byteOffset": 11504976,
      "componentType": 5126,
      "count": 65532,
      "max": [
        0.9999997615814209,
        0.9999704360961914,
        0.9999951124191284
      ],
      "min": [
        -0.9999933242797852,
        -0.9999849796295166,
        -0.9999034404754639
      ],
      "type": "VEC3"
    },
    {
      "bufferView": 1,
      "byteOffset": 3572864,
      "componentType": 5126,
      "count": 65532,
      "max": [
        0.998071014881134,
        0.9958440065383911
      ],
      "min": [
        0.002090000081807375,
        0.0037090000696480274
      ],
      "type": "VEC2"
    },
    {
      "bufferView": 0,
      "byteOffset": 1790088,
      "componentType": 5125,
      "count": 65856,
      "type": "SCALAR"
    },
    {
      "bufferView": 2,
      "byteOffset": 12291360,
      "componentType": 5126,
      "count": 65532,
      "max": [
        2.249034881591797,
        3.1045401096343994,
        11.278011322021484
      ],
      "min": [
        -4.167719841003418,
        -4.266448020935059,
        -4.107400894165039
      ],
      "type": "VEC3"
    },
    {
      "bufferView": 2,
      "byteOffset": 13077744,
      "componentType": 5126,
      "count": 65532,
      "max": [
        0.9999823570251465,
        0.9999963045120239,
        0.9999995231628418
      ],
      "min": [
        -0.9999984502792358,
        -0.9999833106994629,
        -0.9997566342353821
      ],
      "type": "VEC3"
    },
    {
      "bufferView": 1,
      "byteOffset": 4097120,
      "componentType": 5126,
      "count": 65532,
      "max": [
        0.9981449842453003,
        0.9958360195159912
      ],
      "min": [
        0.002078999998047948,
        0.0037090000696480274
      ],
      "type": "VEC2"
    },
    {
      "bufferView": 0,
      "byteOffset": 2053512,
      "componentType": 5125,
      "count": 65538,
      "type": "SCALAR"
    },
    {
      "bufferView": 2,
      "byteOffset": 13864128,
      "componentType": 5126,
      "count": 64030,
      "max": [
        4.0119099617004395,
        3.106703042984009,
        11.261287689208984
      ],
      "min": [
        -0.581633985042572,
        -4.1969451904296875,
        -4.107336044311523
      ],
      "type": "VEC3"
    },
    {
      "bufferView": 2,
      "byteOffset": 14632488,
      "componentType": 5126,
      "count": 64030,
      "max": [
        0.9999675750732422,
        0.9999949932098389,
        0.9999865293502808
      ],
      "min": [
        -0.999800980091095,
        -0.9999887943267822,
        -0.9999933242797852
      ],
      "type": "VEC3"
    },
    {
      "bufferView": 1,
      "byteOffset": 4621376,
      "componentType": 5126,
      "count": 64030,
      "max": [
        0.9981359839439392,
        0.995809018611908
      ],
      "min": [
        0.002090000081807375,
        0.004029000177979469
      ],
      "type": "VEC2"
    },
    {
      "bufferView": 0,
      "byteOffset": 2315664,
      "componentType": 5125,
      "count": 64038,
      "type": "SCALAR"
    }
  ],
  "asset": {
    "extras": {
      "author": "cadyunlin2021 (https://sketchfab.com/cadyunlin2021)",
      "license": "CC-BY-4.0 (http://creativecommons.org/licenses/by/4.0/)",
      "source": "https://sketchfab.com/3d-models/9-2d5c1af855934957928e4e09bdde72e6",
      "title": "9.拜殿神像 媽祖"
    },
    "generator": "Sketchfab-12.68.0",
    "version": "2.0"
  },
  "bufferViews": [
    {
      "buffer": 0,
      "byteLength": 2571816,
      "name": "floatBufferViews",
      "target": 34963
    },
    {
      "buffer": 0,
      "byteLength": 5133616,
      "byteOffset": 2571816,
      "byteStride": 8,
      "name": "floatBufferViews",
      "target": 34962
    },
    {
      "buffer": 0,
      "byteLength": 15400848,
      "byteOffset": 7705432,
      "byteStride": 12,
      "name": "floatBufferViews",
      "target": 34962
    }
  ],
  "buffers": [
    {
      "byteLength": 23106280,
      "uri": "scene.bin"
    }
  ],
  "images": [
    {
      "uri": "textures/Model_0_baseColor.jpeg"
    },
    {
      "uri": "textures/Model_1_baseColor.jpeg"
    }
  ],
  "materials": [
    {
      "doubleSided": true,
      "name": "Model_0",
      "pbrMetallicRoughness": {
        "baseColorTexture": {
          "index": 0
        },
        "metallicFactor": 0.0
      }
    },
    {
      "doubleSided": true,
      "name": "Model_1",
      "pbrMetallicRoughness": {
        "baseColorTexture": {
          "index": 1
        },
        "metallicFactor": 0.0
      }
    }
  ],
  "meshes": [
    {
      "name": "Object_0",
      "primitives": [
        {
          "attributes": {
            "NORMAL": 1,
            "POSITION": 0,
            "TEXCOORD_0": 2
          },
          "indices": 3,
          "material": 0,
          "mode": 4
        }
      ]
    },
    {
      "name": "Object_1",
      "primitives": [
        {
          "attributes": {
            "NORMAL": 5,
            "POSITION": 4,
            "TEXCOORD_0": 6
          },
          "indices": 7,
          "material": 0,
          "mode": 4
        }
      ]
    },
    {
      "name": "Object_2",
      "primitives": [
        {
          "attributes": {
            "NORMAL": 9,
            "POSITION": 8,
            "TEXCOORD_0": 10
          },
          "indices": 11,
          "material": 0,
          "mode": 4
        }
      ]
    },
    {
      "name": "Object_3",
      "primitives": [
        {
          "attributes": {
            "NORMAL": 13,
            "POSITION": 12,
            "TEXCOORD_0": 14
          },
          "indices": 15,
          "material": 0,
          "mode": 4
        }
      ]
    },
    {
      "name": "Object_4",
      "primitives": [
        {
          "attributes": {
            "NORMAL": 17,
            "POSITION": 16,
            "TEXCOORD_0": 18
          },
          "indices": 19,
          "material": 0,
          "mode": 4
        }
      ]
    },
    {
      "name": "Object_5",
      "primitives": [
        {
          "attributes": {
            "NORMAL": 21,
            "POSITION": 20,
            "TEXCOORD_0": 22
          },
          "indices": 23,
          "material": 0,
          "mode": 4
        }
      ]
    },
    {
      "name": "Object_6",
      "primitives": [
        {
          "attributes": {
            "NORMAL": 25,
            "POSITION": 24,
            "TEXCOORD_0": 26
          },
          "indices": 27,
          "material": 0,
          "mode": 4
        }
      ]
    },
    {
      "name": "Object_7",
      "primitives": [
        {
          "attributes": {
            "NORMAL": 29,
            "POSITION": 28,
            "TEXCOORD_0": 30
          },
          "indices": 31,
          "material": 1,
          "mode": 4
        }
      ]
    },
    {
      "name": "Object_8",
      "primitives": [
        {
          "attributes": {
            "NORMAL": 33,
            "POSITION": 32,
            "TEXCOORD_0": 34
          },
          "indices": 35,
          "material": 1,
          "mode": 4
        }
      ]
    },
    {
      "name": "Object_9",
      "primitives": [
        {
          "attributes": {
            "NORMAL": 37,
            "POSITION": 36,
            "TEXCOORD_0": 38
          },
          "indices": 39,
          "material": 1,
          "mode": 4
        }
      ]
    }
  ],
  "nodes": [
    {
      "children": [
        1
      ],
      "matrix": [
        1.0,
        0.0,
        0.0,
        0.0,
        0.0,
        2.220446049250313e-16,
        -1.0,
        0.0,
        0.0,
        1.0,
        2.220446049250313e-16,
        0.0,
        0.0,
        0.0,
        0.0,
        1.0
      ],
      "name": "Sketchfab_model"
    },
    {
      "children": [
        2,
        3,
        4,
        5,
        6,
        7,
        8,
        9,
        10,
        11
      ],
      "name": "9clip.obj.cleaner.materialmerger.gles"
    },
    {
      "mesh": 0,
      "name": "Object_2"
    },
    {
      "mesh": 1,
      "name": "Object_3"
    },
    {
      "mesh": 2,
      "name": "Object_4"
    },
    {
      "mesh": 3,
      "name": "Object_5"
    },
    {
      "mesh": 4,
      "name": "Object_6"
    },
    {
      "mesh": 5,
      "name": "Object_7"
    },
    {
      "mesh": 6,
      "name": "Object_8"
    },
    {
      "mesh": 7,
      "name": "Object_9"
    },
    {
      "mesh": 8,
      "name": "Object_10"
    },
    {
      "mesh": 9,
      "name": "Object_11"
    }
  ],
  "samplers": [
    {
      "magFilter": 9729,
      "minFilter": 9987,
      "wrapS": 10497,
      "wrapT": 10497
    }
  ],
  "scene": 0,
  "scenes": [
    {
      "name": "Sketchfab_Scene",
      "nodes": [
        0
      ]
    }
  ],
  "textures": [
    {
      "sampler": 0,
      "source": 0
    },
    {
      "sampler": 0,
      "source": 1
    }
  ]
}
